<?xml version="1.0" standalone="no"?>
<!DOCTYPE svg PUBLIC "-//W3C//DTD SVG 20010904//EN"
 "http://www.w3.org/TR/2001/REC-SVG-20010904/DTD/svg10.dtd">
<svg version="1.0" xmlns="http://www.w3.org/2000/svg"
 width="878.000000pt" height="878.000000pt" viewBox="0 0 878.000000 878.000000"
 preserveAspectRatio="xMidYMid meet">
<metadata>
Created by potrace 1.16, written by Peter Selinger 2001-2019
</metadata>
<g transform="translate(0.000000,878.000000) scale(0.100000,-0.100000)"
fill="#000000" stroke="none">
<path d="M4035 8773 c-594 -52 -1101 -191 -1595 -437 -784 -392 -1401 -966
-1845 -1716 -149 -251 -310 -608 -395 -875 -75 -236 -141 -543 -176 -815 -25
-196 -30 -740 -10 -958 70 -729 295 -1372 693 -1981 175 -267 318 -445 543
-674 216 -221 417 -389 665 -556 646 -436 1306 -670 2085 -742 183 -17 623
-14 820 5 878 85 1675 416 2370 985 135 110 396 365 517 506 539 623 902 1404
1018 2190 88 597 59 1217 -81 1780 -118 470 -311 906 -588 1325 -177 268 -311
434 -536 663 -274 281 -564 508 -905 709 -560 331 -1146 521 -1799 583 -144
14 -656 19 -781 8z m727 -1478 c459 -60 915 -279 1242 -594 311 -301 487 -611
548 -966 26 -154 21 -419 -11 -556 -48 -211 -149 -434 -256 -567 -124 -154
-351 -336 -585 -471 -272 -156 -345 -213 -450 -352 -83 -111 -127 -206 -139
-302 -7 -59 -16 -86 -36 -112 -55 -73 -24 -70 -668 -73 -375 -2 -591 1 -616 8
-52 14 -90 46 -112 94 -15 34 -19 67 -19 197 0 184 17 294 64 420 81 216 267
446 521 645 110 85 228 157 365 222 160 75 271 144 347 216 121 113 156 195
157 371 1 114 -1 123 -28 178 -35 69 -137 169 -223 220 -156 91 -291 122 -498
114 -205 -7 -339 -50 -471 -150 -82 -62 -247 -235 -377 -395 -59 -72 -119
-140 -133 -151 -33 -26 -93 -35 -140 -22 -26 8 -178 117 -444 319 -351 266
-408 313 -428 352 -30 59 -24 93 39 196 244 404 593 736 977 928 270 136 491
197 867 240 89 10 406 4 507 -9z m220 -4375 c48 -14 97 -55 114 -97 11 -26 14
-146 14 -621 l0 -588 -22 -44 c-15 -30 -37 -53 -63 -67 l-40 -23 -600 0 -600
0 -39 23 c-25 14 -48 39 -63 66 l-23 44 0 586 c0 547 2 589 19 626 10 22 28
48 39 58 50 45 67 46 662 47 359 0 579 -4 602 -10z"/>
</g>
</svg>
